<svg width="50" height="50" viewBox="0 0 50 50" fill="none" xmlns="http://www.w3.org/2000/svg">
<circle cx="25" cy="25" r="25" fill="#5163FF"/>
<path d="M18.8583 33.5748C17.8504 33.5748 16.9685 33.3858 16.2126 33.0079C15.4567 32.5879 14.8478 32.042 14.3858 31.3701C13.9659 30.6982 13.6299 29.9003 13.378 28.9764C13.126 28.0525 13 27.0866 13 26.0787C13 24.021 13.5249 22.0892 14.5748 20.2835C15.6667 18.4777 17.3465 17.0499 19.6142 16L20.1811 17.1339C19.0052 17.6798 17.9554 18.4777 17.0315 19.5276C16.1496 20.5354 15.6247 21.6063 15.4567 22.7402C15.2047 23.622 15.1837 24.4829 15.3937 25.3228C16.3176 24.315 17.5564 23.811 19.1102 23.811C20.5381 23.811 21.7139 24.252 22.6378 25.1339C23.5617 25.9738 24.0236 27.1496 24.0236 28.6614C24.0236 30.1312 23.5407 31.3281 22.5748 32.252C21.6089 33.1339 20.3701 33.5748 18.8583 33.5748ZM31.8346 33.5748C30.8268 33.5748 29.9449 33.3858 29.189 33.0079C28.4331 32.5879 27.8241 32.042 27.3622 31.3701C26.9423 30.6982 26.6063 29.9003 26.3543 28.9764C26.1024 28.0525 25.9764 27.0866 25.9764 26.0787C25.9764 24.021 26.5013 22.0892 27.5512 20.2835C28.643 18.4777 30.3228 17.0499 32.5906 16L33.1575 17.1339C31.9816 17.6798 30.9318 18.4777 30.0079 19.5276C29.126 20.5354 28.601 21.6063 28.4331 22.7402C28.1811 23.622 28.1601 24.4829 28.3701 25.3228C29.294 24.315 30.5328 23.811 32.0866 23.811C33.5144 23.811 34.6903 24.252 35.6142 25.1339C36.5381 25.9738 37 27.1496 37 28.6614C37 30.1312 36.5171 31.3281 35.5512 32.252C34.5853 33.1339 33.3465 33.5748 31.8346 33.5748Z" fill="white"/>
</svg>
