<svg width="11" height="11" viewBox="0 0 11 11" fill="none" xmlns="http://www.w3.org/2000/svg">
<path id="Vector" d="M10.0576 0.263133L4.01184 0.581331C3.79971 0.58133 3.62293 0.687397 3.55222 0.899529C3.48151 1.11166 3.51687 1.28844 3.65829 1.42986L5.46141 3.23298L0.511662 8.18273C0.29953 8.39486 0.29953 8.6777 0.511662 8.88984L1.92588 10.304C2.13801 10.5162 2.42085 10.5162 2.63298 10.304L7.58273 5.3543L9.38585 7.15742C9.52727 7.29885 9.7394 7.36956 9.91618 7.26349C9.98689 7.26349 10.0576 7.19278 10.093 7.15742C10.1637 7.08671 10.2344 6.94529 10.2344 6.80387L10.5526 0.758107C10.5526 0.616686 10.4819 0.475265 10.4112 0.404554C10.3051 0.298488 10.1637 0.227777 10.0576 0.263133ZM2.98654 8.53628L2.63298 8.88984L1.92588 8.18273L2.27943 7.82918L2.98654 8.53628ZM9.27979 5.63714L7.93628 4.29364C7.72415 4.08151 7.44131 4.08151 7.22918 4.29364L3.34009 8.18273L2.63298 7.47562L6.52207 3.58653C6.7342 3.3744 6.7342 3.09156 6.52207 2.87943L5.17857 1.53592L9.52727 1.28844L9.27979 5.63714Z" fill="white"/>
</svg>
